<svg width="300" height="40" viewBox="0 0 300 40" fill="none" xmlns="http://www.w3.org/2000/svg">
<path d="M296.867 29.1684C295.999 29.1684 295.276 29.8931 295.276 30.8689C295.276 31.8448 295.999 32.5678 296.867 32.5678C297.735 32.5678 298.458 31.8431 298.458 30.8689C298.458 29.8914 297.735 29.1684 296.867 29.1684ZM239.289 32.4599H246.595V31.8094L245.799 31.6274C245.076 31.447 244.749 31.0493 244.749 30.0363V20.1987H246.45C247.498 20.1987 248.041 20.4515 248.113 22.6594L248.294 27.2875C248.439 31.447 249.632 32.6049 251.66 32.6049C253.719 32.6049 254.262 31.1942 254.262 29.2038V28.3729H253.502V28.9863C253.502 30.3262 253.321 31.2667 252.816 31.2667C252.345 31.2667 252.308 30.9043 252.201 29.2408L251.983 26.0588C251.695 21.7897 251.152 20.3066 248.006 19.7285C251.007 18.933 252.851 16.7268 252.851 13.5802C252.851 9.49308 249.632 7.53971 246.558 7.53971H234.226V8.19027L234.913 8.33522C236.215 8.62511 236.252 9.31275 236.252 12.242V26.6352C236.252 29.8543 235.347 31.4099 233.284 31.4099C231.442 31.4099 230.429 30.5066 230.429 26.9976V9.89084C230.429 8.8796 230.752 8.58971 231.548 8.40769L232.525 8.19027V7.53971H224.966V8.19027L225.762 8.40938C226.485 8.62511 226.738 8.91499 226.738 9.92623V26.7465C226.738 30.542 228.945 32.6403 232.31 32.6403C235.672 32.6403 237.335 30.542 237.335 26.6369V10.9392C237.335 8.98747 237.733 8.29982 239.324 8.29982C240.59 8.29982 241.134 8.73297 241.134 9.92623V30.0363C241.134 31.0476 240.809 31.4099 240.084 31.592L239.289 31.8094V32.4599ZM287.825 9.92623C287.825 8.91499 288.152 8.58971 288.875 8.44308L289.851 8.22735V7.53971H282.329V8.19027L283.124 8.40938C283.847 8.62511 284.172 8.91499 284.172 9.92623V30.1813C284.172 31.1588 283.775 31.6998 282.652 31.6998C281.351 31.6998 281.171 31.2667 280.701 29.133L276.071 7.46724H274.625L270.212 28.4453C269.705 30.7948 269.452 31.3391 268.476 31.6274L267.861 31.8094V32.4599H273.032V31.8094L272.274 31.6644C271.188 31.4453 270.9 30.8689 271.443 28.12L274.047 14.7009L276.903 28.9156C277.337 30.9768 277.301 31.3745 275.745 31.6627L274.985 31.8094V32.4599H294.155V24.2133H293.467C293.107 28.0105 292.347 31.592 289.272 31.592H287.825V9.92623ZM276.541 25.7318V24.756H271.658L271.515 25.7335H276.541V25.7318ZM256.36 10.3611V27.6498C256.36 30.2538 256.36 31.4824 255.057 31.6998L254.407 31.8094V32.4599H259.722V31.8094C257.408 31.4824 257.408 30.6869 257.408 27.8656V11.4465L256.54 10.6509L265.402 32.4599H266.921V12.3481C266.921 9.38185 266.921 8.73129 268.367 8.33353L268.874 8.18859V7.53971H263.412V8.19027L264.027 8.33522C265.871 8.6605 265.871 9.38522 265.871 12.1341V24.7189L266.233 24.6111L259.507 7.53971H254.334V8.19027L254.84 8.33522C255.42 8.51724 255.745 9.1678 256.36 10.3611ZM244.749 8.40769H246.197C247.643 8.40769 248.981 9.34814 248.981 14.0504C248.981 18.8605 247.969 19.3307 245.944 19.3307H244.749V8.40938V8.40769ZM220.663 19.7656C220.663 30.2167 219.796 31.6998 217.915 31.6998C216.034 31.6998 215.201 30.2167 215.201 19.8363C215.201 9.78297 216.106 8.33522 217.915 8.33522C219.796 8.33522 220.663 9.78297 220.663 19.7656ZM224.606 19.9813C224.606 13.0745 222.399 7.35938 217.915 7.35938C213.393 7.35938 211.259 13.0729 211.259 19.983C211.259 26.9268 213.465 32.6403 217.915 32.6403C222.507 32.6403 224.606 26.9251 224.606 19.9813ZM209.125 9.92623C209.125 8.91499 209.378 8.58971 210.101 8.40938L210.897 8.19027V7.53971H203.412V8.19027L204.315 8.40938C205.038 8.58971 205.436 8.84252 205.436 9.89252V27.2875C205.436 29.7111 205.219 31.6644 203.412 31.6644C202.254 31.6644 201.386 30.7594 201.421 30.1088C201.529 28.9863 203.412 29.0605 203.555 27.2504C203.665 25.9493 202.832 25.4066 202.072 25.2987C200.951 25.1538 199.578 26.0942 199.54 27.9751C199.503 30.397 201.096 32.6049 203.808 32.6049C206.811 32.6049 209.125 30.579 209.125 26.7077V9.92623ZM88.3264 9.92623C88.3264 8.91499 88.6517 8.58971 89.3747 8.44308L90.3522 8.22735V7.53971H82.8286V8.19027L83.6241 8.40938C84.3489 8.62511 84.6741 8.91499 84.6741 9.92623V30.1813C84.6741 31.1588 84.2747 31.6998 83.1539 31.6998C81.8528 31.6998 81.6354 31.2667 81.1652 29.133L76.5337 7.46724H75.0876L70.6753 28.4453C70.1696 30.7948 69.9152 31.3391 68.9393 31.6274L68.3242 31.8094V32.4599H73.4966V31.8094L72.7365 31.6644C71.6511 31.4453 71.3612 30.8689 71.9039 28.12L74.5079 14.6285L77.3663 28.9156C77.764 30.9768 77.764 31.3745 76.2084 31.6627L75.45 31.8094V32.4599H94.6534V24.2133H93.9674C93.605 28.0105 92.8449 31.592 89.7708 31.592H88.3247V9.92623H88.3264ZM189.015 8.40938H189.812C192.056 8.40938 192.814 11.9892 193.067 15.7863H193.754V7.53971H180.625V15.7863H181.313C181.566 11.9892 182.326 8.40769 184.567 8.40769H185.363V30.0363C185.363 31.0476 185.038 31.4099 184.315 31.592L183.374 31.8094V32.4599H191.186V31.8094L190.065 31.5566C189.378 31.3745 189.015 31.1571 189.015 30.0363V8.40769V8.40938ZM172.488 19.9459L173.609 19.9813C175.237 20.0184 175.706 20.6335 176.033 24.5757H176.719V14.5206H176.033C175.635 17.6672 175.2 19.0038 173.644 19.0408L172.488 19.0779V8.40938H174.983C177.769 8.40938 178.384 11.915 178.781 15.7863H179.467V7.53971H166.99V8.19027L167.786 8.40938C168.617 8.62511 168.834 9.13241 168.834 9.96331V30.0363C168.834 31.0476 168.511 31.4099 167.786 31.592L166.99 31.8094V32.4599H179.83V24.2133H179.142C178.709 27.9751 178.239 31.592 174.983 31.592H172.488V19.9459ZM158.853 19.9459L159.974 19.9813C161.601 20.0184 162.071 20.6335 162.398 24.5757H163.084V14.5206H162.398C162 17.6672 161.565 19.0038 160.011 19.0408L158.852 19.0779V8.40938H161.348C164.134 8.40938 164.747 11.9892 165.145 15.7863H165.833V7.53971H152.993V8.19027L154.151 8.40938C154.982 8.62511 155.199 9.13241 155.199 9.96331V30.0363C155.199 31.0476 154.874 31.4099 154.151 31.592L153.356 31.8094V32.4599H166.195V24.2133H165.506C165.072 27.9751 164.601 31.592 161.346 31.592H158.852L158.853 19.9459ZM143.988 8.40769H145.074C146.52 8.40769 147.858 9.34814 147.858 14.0504C147.858 18.788 146.847 19.3307 144.819 19.3307H143.988V8.40938V8.40769ZM138.528 32.4583H145.832V31.8094L145.036 31.6274C144.312 31.447 143.988 31.0493 143.988 30.0363V20.1987H145.326C146.375 20.1987 146.917 20.6335 146.99 22.6594L147.17 27.2875C147.315 31.447 148.508 32.6049 150.534 32.6049C152.595 32.6049 153.138 31.1942 153.138 29.2038V28.3729H152.38V28.9863C152.38 30.3262 152.198 31.2667 151.692 31.2667C151.22 31.2667 151.185 30.9043 151.077 29.2408L150.858 26.0588C150.571 21.6818 149.992 20.3066 146.88 19.7285C149.884 18.933 151.728 16.7268 151.728 13.5802C151.728 9.49308 148.508 7.53971 145.434 7.53971H138.526V8.19027L139.321 8.40938C140.046 8.62511 140.371 8.91499 140.371 9.92623V30.0363C140.371 31.0476 140.046 31.4099 139.321 31.592L138.526 31.8094V32.4599L138.528 32.4583ZM132.991 8.40938H133.786C136.028 8.40938 136.788 11.9908 137.043 15.788H137.729V7.53971H124.599V15.7863H125.287C125.54 11.9892 126.3 8.40769 128.543 8.40769H129.339V30.0363C129.339 31.0476 129.012 31.4099 128.29 31.592L127.348 31.8094V32.4599H134.98V31.8094L134.039 31.5903C133.101 31.3745 132.991 30.6515 132.991 30.0363V8.40769V8.40938ZM124.636 25.988C124.636 18.5723 116.499 16.6189 116.499 11.2307C116.499 10.0729 116.933 8.3369 118.741 8.3369C121.345 8.3369 122.322 11.7009 122.756 15.788H123.443V7.53971H123.008C122.828 8.33522 122.503 8.69758 122.033 8.69758C121.2 8.69758 120.767 7.39477 118.778 7.39477C115.704 7.39477 113.604 9.96331 113.604 13.3274C113.604 19.4386 121.744 22.0071 121.744 27.6498C121.744 30.2167 120.549 31.6644 118.921 31.6644C116.499 31.6644 114.907 28.8077 114.474 24.2133H113.786V32.4599H114.221C114.581 31.2667 115.052 31.1571 115.451 31.1571C116.137 31.1571 116.86 32.6049 118.957 32.6049C122.176 32.6049 124.636 29.8189 124.636 25.9847V25.988ZM100.948 9.92454C100.948 8.91331 101.274 8.58803 101.997 8.4414L102.974 8.22567V7.53971H95.4505V8.19027L96.2461 8.40938C96.9708 8.62511 97.2961 8.91499 97.2961 9.92623V30.0363C97.2961 31.0476 96.9708 31.4099 96.2461 31.592L95.4505 31.8094V32.4599H107.279V24.2133H106.591C106.229 28.0105 105.47 31.592 102.394 31.592H100.948V9.92623V9.92454ZM77.0056 25.7318V24.756H72.123L71.9781 25.7335H77.0056V25.7318ZM56.1017 32.5324H57.5848L60.9472 14.738H60.4416L64.1292 32.5324H65.432L69.8444 11.5543C70.3163 9.34814 70.5691 8.58803 71.4354 8.3723L72.123 8.19027V7.53971H67.023V8.19027L67.7831 8.33522C68.8685 8.55263 69.1213 9.20319 68.6157 11.8796L65.7573 25.9493H66.1921L63.2983 11.1212C63.0084 9.7105 62.8281 8.55263 64.023 8.33522L64.8168 8.19027V7.53971H57.8376V8.19027L58.3079 8.29982C59.0309 8.48016 59.1388 8.91499 59.4286 10.2886L60.5494 15.6785L60.332 12.4223L57.8376 25.5869H58.1629L55.2337 11.1212C54.9067 9.63803 54.7989 8.51724 55.9567 8.29982L56.4994 8.19027V7.53971H49.3736V8.19027L50.0612 8.3723C50.7118 8.55263 51.0725 8.87791 51.5073 10.8667L56.1017 32.5324ZM36.7871 19.9459L37.9095 19.9813C39.5359 20.0184 40.0062 20.6335 40.3315 24.5757H41.0191V14.5206H40.3315C39.9337 17.6672 39.5006 19.0038 37.9449 19.0408L36.7871 19.0779V8.40938H39.2831C42.0674 8.40938 42.6826 11.9892 43.0803 15.7863H43.768V7.53971H31.291V8.19027L32.0865 8.40938C32.9174 8.62511 33.1348 9.13241 33.1348 9.96331V30.0363C33.1348 31.0476 32.8095 31.4099 32.0865 31.592L31.291 31.8094V32.4599H44.1303V24.2133H43.4427C43.0079 27.9751 42.5376 31.592 39.2831 31.592H36.7888L36.7871 19.9459ZM14.0393 32.4599H21.455V31.8094L20.6225 31.6274C19.9719 31.4824 19.5371 31.0493 19.5371 30.0363V20.1633H24.9977V30.0363C24.9977 31.0476 24.5646 31.4824 23.914 31.6274L23.0815 31.8094V32.4599H30.4972V31.8094L29.7 31.5903C28.977 31.4099 28.6517 31.0122 28.6517 29.9993V9.92791C28.6517 8.91668 28.977 8.5914 29.7 8.41106L30.4955 8.19196V7.53971H23.0815V8.19027L23.914 8.40938C24.5275 8.58971 24.9977 8.84252 24.9977 9.89252V19.1858H19.5371V9.89084C19.5371 8.8796 19.9348 8.58971 20.6225 8.40769L21.455 8.19027V7.53971H14.0393V8.19027L14.8348 8.40938C15.5595 8.62511 15.8848 8.91499 15.8848 9.92623V30.0363C15.8848 31.0476 15.5595 31.4099 14.8348 31.592L14.0393 31.8094V32.4599ZM8.50449 8.40938H9.29999C11.5416 8.40769 12.3034 11.9875 12.5562 15.7863H13.2421V7.53971H0.112915V15.7863H0.800555C1.05336 11.9892 1.81348 8.40769 4.05674 8.40769H4.85224V30.0363C4.85224 31.0476 4.52696 31.4099 3.80224 31.592L2.86179 31.8094V32.4599H10.6753V31.8094L9.55449 31.5566C8.86685 31.3745 8.50449 31.1571 8.50449 30.0363V8.40769V8.40938Z" fill="#555555"/>
</svg>
